<svg xmlns="http://www.w3.org/2000/svg" viewBox="0 0 760 760" width="760" height="760">
<rect width="760" height="760" fill="#ffffff"/>
<path d="M515.30,200.62L502.18,202.84L489.39,204.94L477.21,206.81L465.85,208.35L455.52,209.52L446.36,210.36L438.48,210.91L431.93,211.31L426.73,211.71L422.82,212.31L420.14,213.32L418.57,214.96L417.98,217.46L418.22,221.02L419.12,225.80L420.52,231.93L422.25,239.47L424.16,248.44L426.09,258.77L427.93,270.35L429.55,282.99L430.86,296.45L431.75,310.44L432.16,324.66" stroke="#c1440e" stroke-width="8" stroke-linecap="round" stroke-linejoin="round" fill="none"/>
<path d="M330.59,415.18L317.39,414.47L303.94,414.41L290.45,415.21L277.15,417.01" stroke="#c1440e" stroke-width="8" stroke-linecap="round" stroke-linejoin="round" fill="none"/>
<path d="M230.23,434.60L221.04,441.10L213.17,448.05L206.68,455.19L201.61,462.23L197.93,468.89L195.57,474.95L194.42,480.17L194.33,484.42L195.11,487.59L196.56,489.67L198.47,490.72L200.62,490.88L202.84,490.35L204.94,489.39L206.81,488.34L208.35,487.52L209.52,487.30L210.36,488.04L210.91,490.07L211.31,493.66L211.71,499.04L212.31,506.35L213.32,515.65L214.96,526.91L217.46,539.99L221.02,554.68L225.80,570.67L231.93,587.60L239.47,605.03L248.44,622.49L258.77,639.53L270.35,655.66L282.99,670.43L296.45,683.47L310.44,694.43L324.66,703.08L338.77,709.25L352.44,712.88" stroke="#c1440e" stroke-width="8" stroke-linecap="round" stroke-linejoin="round" fill="none"/>
<path d="M404.35,697.24L410.21,689.29L414.48,680.60L417.24,671.57L418.67,662.59L419.01,654.00L418.52,646.10L417.51,639.11L416.29,633.18L415.18,628.38L414.47,624.69L414.41,622.03L415.21,620.24L417.01,619.11L419.88,618.38L423.82,617.75L428.77,616.94L434.60,615.66L441.10,613.62L448.05,610.59L455.19,606.39L462.23,600.89L468.89,594.03L474.95,585.80L480.17,576.27L484.42,565.58L487.59,553.89L489.67,541.44L490.72,528.48L490.88,515.30L490.35,502.18L489.39,489.39L488.34,477.21L487.52,465.85L487.30,455.52L488.04,446.36L490.07,438.48" stroke="#c1440e" stroke-width="8" stroke-linecap="round" stroke-linejoin="round" fill="none"/>
<path d="M539.99,417.98L554.68,418.22L570.67,419.12L587.60,420.52L605.03,422.25L622.49,424.16L639.53,426.09L655.66,427.93L670.43,429.55L683.47,430.86L694.43,431.75L703.08,432.16L709.25,432.01L712.88,431.23L714.00,429.77L712.75,427.56L709.34,424.56L704.06,420.69L697.24,415.93L689.29,410.21L680.60,403.52L671.57,395.84" stroke="#c1440e" stroke-width="8" stroke-linecap="round" stroke-linejoin="round" fill="none"/>
<path d="M646.10,366.93L639.11,355.51L633.18,343.35L628.38,330.59L624.69,317.39L622.03,303.94L620.24,290.45L619.11,277.15L618.38,264.26L617.75,252.01L616.94,240.60L615.66,230.23L613.62,221.04L610.59,213.17L606.39,206.68L600.89,201.61L594.03,197.93L585.80,195.57L576.27,194.42L565.58,194.33L553.89,195.11" stroke="#c1440e" stroke-width="8" stroke-linecap="round" stroke-linejoin="round" fill="none"/>
<path d="M294.15,208.35L304.48,209.52L313.64,210.36L321.52,210.91L328.07,211.31L333.27,211.71L337.18,212.31L339.86,213.32L341.43,214.96L342.02,217.46L341.78,221.02L340.88,225.80L339.48,231.93L337.75,239.47L335.84,248.44L333.91,258.77L332.07,270.35L330.45,282.99L329.14,296.45L328.25,310.44L327.84,324.66L327.99,338.77L328.77,352.44L330.23,365.34L332.44,377.20L335.44,387.76L339.31,396.85L344.07,404.35L349.79,410.21L356.48,414.48L364.16,417.24L372.84,418.67L382.49,419.01L393.07,418.52L404.49,417.51L416.65,416.29" stroke="#1f6f8b" stroke-width="8" stroke-linecap="round" stroke-linejoin="round" fill="none"/>
<path d="M456.06,414.41L469.55,415.21L482.85,417.01L495.74,419.88L507.99,423.82L519.40,428.77L529.77,434.60L538.96,441.10L546.83,448.05L553.32,455.19L558.39,462.23L562.07,468.89L564.43,474.95L565.58,480.17L565.67,484.42L564.89,487.59L563.44,489.67L561.53,490.72L559.38,490.88L557.16,490.35L555.06,489.39L553.19,488.34L551.65,487.52L550.48,487.30L549.64,488.04L549.09,490.07L548.69,493.66L548.29,499.04L547.69,506.35L546.68,515.65L545.04,526.91L542.54,539.99" stroke="#1f6f8b" stroke-width="8" stroke-linecap="round" stroke-linejoin="round" fill="none"/>
<path d="M528.07,587.60L520.53,605.03L511.56,622.49L501.23,639.53L489.65,655.66L477.01,670.43L463.55,683.47L449.56,694.43L435.34,703.08L421.23,709.25L407.56,712.88L394.66,714.00L382.80,712.75L372.24,709.34L363.15,704.06L355.65,697.24L349.79,689.29L345.52,680.60L342.76,671.57L341.33,662.59L340.99,654.00L341.48,646.10L342.49,639.11L343.71,633.18L344.82,628.38L345.53,624.69L345.59,622.03L344.79,620.24L342.99,619.11L340.12,618.38L336.18,617.75L331.23,616.94L325.40,615.66L318.90,613.62L311.95,610.59L304.81,606.39L297.77,600.89L291.11,594.03L285.05,585.80L279.83,576.27" stroke="#1f6f8b" stroke-width="8" stroke-linecap="round" stroke-linejoin="round" fill="none"/>
<path d="M270.33,541.44L269.28,528.48L269.12,515.30L269.65,502.18L270.61,489.39L271.66,477.21L272.48,465.85L272.70,455.52L271.96,446.36L269.93,438.48L266.34,431.93L260.96,426.73L253.65,422.82L244.35,420.14L233.09,418.57L220.01,417.98L205.32,418.22L189.33,419.12L172.40,420.52L154.97,422.25" stroke="#1f6f8b" stroke-width="8" stroke-linecap="round" stroke-linejoin="round" fill="none"/>
<path d="M104.34,427.93L89.57,429.55L76.53,430.86L65.57,431.75L56.92,432.16L50.75,432.01L47.12,431.23L46.00,429.77L47.25,427.56L50.66,424.56L55.94,420.69L62.76,415.93L70.71,410.21L79.40,403.52L88.43,395.84L97.41,387.16L106.00,377.51L113.90,366.93L120.89,355.51" stroke="#1f6f8b" stroke-width="8" stroke-linecap="round" stroke-linejoin="round" fill="none"/>
<path d="M135.31,317.39L137.97,303.94L139.76,290.45L140.89,277.15L141.62,264.26L142.25,252.01L143.06,240.60L144.34,230.23L146.38,221.04L149.41,213.17L153.61,206.68L159.11,201.61L165.97,197.93L174.20,195.57L183.73,194.42L194.42,194.33L206.11,195.11L218.56,196.56L231.52,198.47L244.70,200.62L257.82,202.84" stroke="#1f6f8b" stroke-width="8" stroke-linecap="round" stroke-linejoin="round" fill="none"/>
<path d="M465.85,551.65L455.52,550.48L446.36,549.64L438.48,549.09L431.93,548.69L426.73,548.29L422.82,547.69L420.14,546.68L418.57,545.04L417.98,542.54L418.22,538.98L419.12,534.20L420.52,528.07L422.25,520.53L424.16,511.56L426.09,501.23L427.93,489.65L429.55,477.01L430.86,463.55L431.75,449.56L432.16,435.34L432.01,421.23L431.23,407.56L429.77,394.66L427.56,382.80L424.56,372.24L420.69,363.15L415.93,355.65L410.21,349.79L403.52,345.52L395.84,342.76L387.16,341.33L377.51,340.99L366.93,341.48L355.51,342.49L343.35,343.71" stroke="#c9a227" stroke-width="8" stroke-linecap="round" stroke-linejoin="round" fill="none"/>
<path d="M303.94,345.59L290.45,344.79L277.15,342.99L264.26,340.12L252.01,336.18L240.60,331.23L230.23,325.40L221.04,318.90L213.17,311.95L206.68,304.81L201.61,297.77L197.93,291.11L195.57,285.05L194.42,279.83L194.33,275.58L195.11,272.41L196.56,270.33L198.47,269.28L200.62,269.12L202.84,269.65L204.94,270.61L206.81,271.66L208.35,272.48L209.52,272.70L210.36,271.96L210.91,269.93L211.31,266.34L211.71,260.96L212.31,253.65L213.32,244.35L214.96,233.09L217.46,220.01" stroke="#c9a227" stroke-width="8" stroke-linecap="round" stroke-linejoin="round" fill="none"/>
<path d="M231.93,172.40L239.47,154.97L248.44,137.51L258.77,120.47L270.35,104.34L282.99,89.57L296.45,76.53L310.44,65.57L324.66,56.92L338.77,50.75L352.44,47.12L365.34,46.00L377.20,47.25L387.76,50.66L396.85,55.94L404.35,62.76L410.21,70.71L414.48,79.40L417.24,88.43L418.67,97.41L419.01,106.00L418.52,113.90L417.51,120.89L416.29,126.82L415.18,131.62L414.47,135.31L414.41,137.97L415.21,139.76L417.01,140.89L419.88,141.62L423.82,142.25L428.77,143.06L434.60,144.34L441.10,146.38L448.05,149.41L455.19,153.61L462.23,159.11L468.89,165.97L474.95,174.20L480.17,183.73" stroke="#c9a227" stroke-width="8" stroke-linecap="round" stroke-linejoin="round" fill="none"/>
<path d="M489.67,218.56L490.72,231.52L490.88,244.70L490.35,257.82L489.39,270.61L488.34,282.79L487.52,294.15L487.30,304.48L488.04,313.64L490.07,321.52L493.66,328.07L499.04,333.27L506.35,337.18L515.65,339.86L526.91,341.43L539.99,342.02L554.68,341.78L570.67,340.88L587.60,339.48L605.03,337.75" stroke="#c9a227" stroke-width="8" stroke-linecap="round" stroke-linejoin="round" fill="none"/>
<path d="M655.66,332.07L670.43,330.45L683.47,329.14L694.43,328.25L703.08,327.84L709.25,327.99L712.88,328.77L714.00,330.23L712.75,332.44L709.34,335.44L704.06,339.31L697.24,344.07L689.29,349.79L680.60,356.48L671.57,364.16L662.59,372.84L654.00,382.49L646.10,393.07L639.11,404.49" stroke="#c9a227" stroke-width="8" stroke-linecap="round" stroke-linejoin="round" fill="none"/>
<path d="M624.69,442.61L622.03,456.06L620.24,469.55L619.11,482.85L618.38,495.74L617.75,507.99L616.94,519.40L615.66,529.77L613.62,538.96L610.59,546.83L606.39,553.32L600.89,558.39L594.03,562.07L585.80,564.43L576.27,565.58L565.58,565.67L553.89,564.89L541.44,563.44L528.48,561.53L515.30,559.38L502.18,557.16" stroke="#c9a227" stroke-width="8" stroke-linecap="round" stroke-linejoin="round" fill="none"/>
<path d="M244.70,559.38L257.82,557.16L270.61,555.06L282.79,553.19L294.15,551.65L304.48,550.48L313.64,549.64L321.52,549.09L328.07,548.69L333.27,548.29L337.18,547.69L339.86,546.68L341.43,545.04L342.02,542.54L341.78,538.98L340.88,534.20L339.48,528.07L337.75,520.53L335.84,511.56L333.91,501.23L332.07,489.65L330.45,477.01L329.14,463.55L328.25,449.56L327.84,435.34" stroke="#4a7c3f" stroke-width="8" stroke-linecap="round" stroke-linejoin="round" fill="none"/>
<path d="M429.41,344.82L442.61,345.53L456.06,345.59L469.55,344.79L482.85,342.99" stroke="#4a7c3f" stroke-width="8" stroke-linecap="round" stroke-linejoin="round" fill="none"/>
<path d="M529.77,325.40L538.96,318.90L546.83,311.95L553.32,304.81L558.39,297.77L562.07,291.11L564.43,285.05L565.58,279.83L565.67,275.58L564.89,272.41L563.44,270.33L561.53,269.28L559.38,269.12L557.16,269.65L555.06,270.61L553.19,271.66L551.65,272.48L550.48,272.70L549.64,271.96L549.09,269.93L548.69,266.34L548.29,260.96L547.69,253.65L546.68,244.35L545.04,233.09L542.54,220.01L538.98,205.32L534.20,189.33L528.07,172.40L520.53,154.97L511.56,137.51L501.23,120.47L489.65,104.34L477.01,89.57L463.55,76.53L449.56,65.57L435.34,56.92L421.23,50.75L407.56,47.12" stroke="#4a7c3f" stroke-width="8" stroke-linecap="round" stroke-linejoin="round" fill="none"/>
<path d="M355.65,62.76L349.79,70.71L345.52,79.40L342.76,88.43L341.33,97.41L340.99,106.00L341.48,113.90L342.49,120.89L343.71,126.82L344.82,131.62L345.53,135.31L345.59,137.97L344.79,139.76L342.99,140.89L340.12,141.62L336.18,142.25L331.23,143.06L325.40,144.34L318.90,146.38L311.95,149.41L304.81,153.61L297.77,159.11L291.11,165.97L285.05,174.20L279.83,183.73L275.58,194.42L272.41,206.11L270.33,218.56L269.28,231.52L269.12,244.70L269.65,257.82L270.61,270.61L271.66,282.79L272.48,294.15L272.70,304.48L271.96,313.64L269.93,321.52" stroke="#4a7c3f" stroke-width="8" stroke-linecap="round" stroke-linejoin="round" fill="none"/>
<path d="M220.01,342.02L205.32,341.78L189.33,340.88L172.40,339.48L154.97,337.75L137.51,335.84L120.47,333.91L104.34,332.07L89.57,330.45L76.53,329.14L65.57,328.25L56.92,327.84L50.75,327.99L47.12,328.77L46.00,330.23L47.25,332.44L50.66,335.44L55.94,339.31L62.76,344.07L70.71,349.79L79.40,356.48L88.43,364.16" stroke="#4a7c3f" stroke-width="8" stroke-linecap="round" stroke-linejoin="round" fill="none"/>
<path d="M113.90,393.07L120.89,404.49L126.82,416.65L131.62,429.41L135.31,442.61L137.97,456.06L139.76,469.55L140.89,482.85L141.62,495.74L142.25,507.99L143.06,519.40L144.34,529.77L146.38,538.96L149.41,546.83L153.61,553.32L159.11,558.39L165.97,562.07L174.20,564.43L183.73,565.58L194.42,565.67L206.11,564.89" stroke="#4a7c3f" stroke-width="8" stroke-linecap="round" stroke-linejoin="round" fill="none"/>
<text x="380" y="746" text-anchor="middle" font-family="ui-monospace,monospace" font-size="15" fill="#555">down a 2-fold axis — A<->D, B<->C</text>
</svg>
